<mxfile host="app.diagrams.net" modified="2023-09-03T22:44:43.396Z" agent="Mozilla/5.0 (Windows NT 10.0; Win64; x64) AppleWebKit/537.36 (KHTML, like Gecko) Chrome/116.0.0.0 Safari/537.36" etag="JJUWCUus8oDSWCyBQEIx" version="21.6.8" type="device">
  <diagram name="Página-1" id="8TExKKhFTyYuXQ5IrPpn">
    <mxGraphModel dx="764" dy="600" grid="1" gridSize="10" guides="1" tooltips="1" connect="1" arrows="1" fold="1" page="1" pageScale="1" pageWidth="827" pageHeight="1169" math="0" shadow="0">
      <root>
        <mxCell id="0" />
        <mxCell id="1" parent="0" />
        <mxCell id="Gxciu4_B2IVStL_h36wu-3" value="" style="edgeStyle=orthogonalEdgeStyle;rounded=0;orthogonalLoop=1;jettySize=auto;html=1;" edge="1" parent="1" source="Gxciu4_B2IVStL_h36wu-1" target="Gxciu4_B2IVStL_h36wu-2">
          <mxGeometry relative="1" as="geometry" />
        </mxCell>
        <mxCell id="Gxciu4_B2IVStL_h36wu-1" value="" style="ellipse;whiteSpace=wrap;html=1;aspect=fixed;sketch=1;curveFitting=1;jiggle=2;fillColor=#d5e8d4;strokeColor=#82b366;" vertex="1" parent="1">
          <mxGeometry x="110" y="265" width="50" height="50" as="geometry" />
        </mxCell>
        <mxCell id="Gxciu4_B2IVStL_h36wu-7" value="" style="edgeStyle=orthogonalEdgeStyle;rounded=0;orthogonalLoop=1;jettySize=auto;html=1;" edge="1" parent="1" source="Gxciu4_B2IVStL_h36wu-2" target="Gxciu4_B2IVStL_h36wu-6">
          <mxGeometry relative="1" as="geometry" />
        </mxCell>
        <mxCell id="Gxciu4_B2IVStL_h36wu-2" value="&lt;font style=&quot;vertical-align: inherit;&quot;&gt;&lt;font style=&quot;vertical-align: inherit;&quot;&gt;&lt;font style=&quot;vertical-align: inherit;&quot;&gt;&lt;font style=&quot;vertical-align: inherit;&quot;&gt;&lt;font face=&quot;Verdana&quot;&gt;&lt;font style=&quot;vertical-align: inherit;&quot;&gt;&lt;font style=&quot;vertical-align: inherit;&quot;&gt;Reber nome do&amp;nbsp; &lt;/font&gt;&lt;/font&gt;&lt;br&gt;&lt;br&gt;&lt;font style=&quot;vertical-align: inherit;&quot;&gt;&lt;font style=&quot;vertical-align: inherit;&quot;&gt;familiar&lt;/font&gt;&lt;/font&gt;&lt;/font&gt;&lt;br&gt;&lt;/font&gt;&lt;/font&gt;&lt;/font&gt;&lt;/font&gt;" style="whiteSpace=wrap;html=1;sketch=1;curveFitting=1;jiggle=2;" vertex="1" parent="1">
          <mxGeometry x="240" y="245" width="190" height="90" as="geometry" />
        </mxCell>
        <mxCell id="Gxciu4_B2IVStL_h36wu-30" style="edgeStyle=orthogonalEdgeStyle;rounded=0;orthogonalLoop=1;jettySize=auto;html=1;exitX=0.5;exitY=1;exitDx=0;exitDy=0;entryX=0.5;entryY=0;entryDx=0;entryDy=0;" edge="1" parent="1" source="Gxciu4_B2IVStL_h36wu-6" target="Gxciu4_B2IVStL_h36wu-10">
          <mxGeometry relative="1" as="geometry" />
        </mxCell>
        <mxCell id="Gxciu4_B2IVStL_h36wu-6" value="&lt;font style=&quot;vertical-align: inherit;&quot;&gt;&lt;font style=&quot;vertical-align: inherit;&quot;&gt;&lt;font style=&quot;vertical-align: inherit;&quot;&gt;&lt;font style=&quot;vertical-align: inherit;&quot;&gt;&lt;font style=&quot;vertical-align: inherit;&quot;&gt;&lt;font style=&quot;vertical-align: inherit;&quot;&gt;&lt;font face=&quot;Verdana&quot;&gt;&lt;font style=&quot;vertical-align: inherit;&quot;&gt;&lt;font style=&quot;vertical-align: inherit;&quot;&gt;Reber nome do&amp;nbsp; &lt;/font&gt;&lt;/font&gt;&lt;br&gt;&lt;br&gt;&lt;font style=&quot;vertical-align: inherit;&quot;&gt;&lt;font style=&quot;vertical-align: inherit;&quot;&gt;prato&lt;/font&gt;&lt;/font&gt;&lt;/font&gt;&lt;br&gt;&lt;/font&gt;&lt;/font&gt;&lt;/font&gt;&lt;/font&gt;&lt;/font&gt;&lt;/font&gt;" style="whiteSpace=wrap;html=1;sketch=1;curveFitting=1;jiggle=2;" vertex="1" parent="1">
          <mxGeometry x="510" y="245" width="190" height="90" as="geometry" />
        </mxCell>
        <mxCell id="Gxciu4_B2IVStL_h36wu-22" style="edgeStyle=orthogonalEdgeStyle;rounded=0;orthogonalLoop=1;jettySize=auto;html=1;entryX=0.5;entryY=1;entryDx=0;entryDy=0;" edge="1" parent="1" source="Gxciu4_B2IVStL_h36wu-10" target="Gxciu4_B2IVStL_h36wu-2">
          <mxGeometry relative="1" as="geometry" />
        </mxCell>
        <mxCell id="Gxciu4_B2IVStL_h36wu-29" style="edgeStyle=orthogonalEdgeStyle;rounded=0;orthogonalLoop=1;jettySize=auto;html=1;exitX=0.5;exitY=1;exitDx=0;exitDy=0;entryX=0.5;entryY=0;entryDx=0;entryDy=0;" edge="1" parent="1" source="Gxciu4_B2IVStL_h36wu-10" target="Gxciu4_B2IVStL_h36wu-23">
          <mxGeometry relative="1" as="geometry" />
        </mxCell>
        <mxCell id="Gxciu4_B2IVStL_h36wu-10" value="" style="rhombus;whiteSpace=wrap;html=1;sketch=1;curveFitting=1;jiggle=2;" vertex="1" parent="1">
          <mxGeometry x="565" y="440" width="80" height="80" as="geometry" />
        </mxCell>
        <mxCell id="Gxciu4_B2IVStL_h36wu-13" value="" style="ellipse;whiteSpace=wrap;html=1;aspect=fixed;sketch=1;curveFitting=1;jiggle=2;fillColor=#f8cecc;strokeColor=#b85450;" vertex="1" parent="1">
          <mxGeometry x="389" y="625" width="50" height="50" as="geometry" />
        </mxCell>
        <mxCell id="Gxciu4_B2IVStL_h36wu-16" value="&lt;font style=&quot;vertical-align: inherit;&quot;&gt;&lt;font style=&quot;vertical-align: inherit;&quot;&gt;[ SE não adicionar outro familiar ]&lt;/font&gt;&lt;/font&gt;" style="text;html=1;align=center;verticalAlign=middle;resizable=0;points=[];autosize=1;strokeColor=none;fillColor=none;" vertex="1" parent="1">
          <mxGeometry x="610" y="540" width="200" height="30" as="geometry" />
        </mxCell>
        <mxCell id="Gxciu4_B2IVStL_h36wu-20" value="&lt;font style=&quot;vertical-align: inherit;&quot;&gt;&lt;font style=&quot;vertical-align: inherit;&quot;&gt;[ SE adicionar mais pessoas ]&lt;/font&gt;&lt;/font&gt;" style="text;html=1;align=center;verticalAlign=middle;resizable=0;points=[];autosize=1;strokeColor=none;fillColor=none;" vertex="1" parent="1">
          <mxGeometry x="380" y="440" width="180" height="30" as="geometry" />
        </mxCell>
        <mxCell id="Gxciu4_B2IVStL_h36wu-25" style="edgeStyle=orthogonalEdgeStyle;rounded=0;orthogonalLoop=1;jettySize=auto;html=1;entryX=1;entryY=0.5;entryDx=0;entryDy=0;" edge="1" parent="1" source="Gxciu4_B2IVStL_h36wu-23" target="Gxciu4_B2IVStL_h36wu-13">
          <mxGeometry relative="1" as="geometry" />
        </mxCell>
        <mxCell id="Gxciu4_B2IVStL_h36wu-23" value="&lt;font style=&quot;vertical-align: inherit;&quot;&gt;&lt;font style=&quot;vertical-align: inherit;&quot;&gt;&lt;font style=&quot;vertical-align: inherit;&quot;&gt;&lt;font style=&quot;vertical-align: inherit;&quot; face=&quot;Verdana&quot;&gt;Exibir lista de nomes e pratos&lt;/font&gt;&lt;/font&gt;&lt;/font&gt;&lt;/font&gt;" style="whiteSpace=wrap;html=1;sketch=1;curveFitting=1;jiggle=2;" vertex="1" parent="1">
          <mxGeometry x="545" y="620" width="120" height="60" as="geometry" />
        </mxCell>
      </root>
    </mxGraphModel>
  </diagram>
</mxfile>
